<mxfile host="Electron" modified="2023-04-13T11:08:39.057Z" agent="Mozilla/5.0 (Windows NT 10.0; Win64; x64) AppleWebKit/537.36 (KHTML, like Gecko) draw.io/21.1.2 Chrome/106.0.5249.199 Electron/21.4.3 Safari/537.36" etag="2kxZT9wE_eqyp51Gcz44" version="21.1.2" type="device">
  <diagram id="C5RBs43oDa-KdzZeNtuy" name="Page-1">
    <mxGraphModel dx="2103" dy="606" grid="0" gridSize="10" guides="1" tooltips="1" connect="1" arrows="1" fold="1" page="1" pageScale="1" pageWidth="827" pageHeight="1169" math="0" shadow="0">
      <root>
        <mxCell id="WIyWlLk6GJQsqaUBKTNV-0" />
        <mxCell id="WIyWlLk6GJQsqaUBKTNV-1" parent="WIyWlLk6GJQsqaUBKTNV-0" />
        <mxCell id="51EHA9I_869r_hzcq9P--7" style="edgeStyle=orthogonalEdgeStyle;rounded=0;orthogonalLoop=1;jettySize=auto;html=1;" edge="1" parent="WIyWlLk6GJQsqaUBKTNV-1" source="51EHA9I_869r_hzcq9P--0" target="51EHA9I_869r_hzcq9P--6">
          <mxGeometry relative="1" as="geometry">
            <Array as="points">
              <mxPoint x="-605" y="134" />
              <mxPoint x="-605" y="134" />
            </Array>
          </mxGeometry>
        </mxCell>
        <mxCell id="51EHA9I_869r_hzcq9P--19" value="" style="edgeStyle=orthogonalEdgeStyle;rounded=0;orthogonalLoop=1;jettySize=auto;html=1;" edge="1" parent="WIyWlLk6GJQsqaUBKTNV-1" source="51EHA9I_869r_hzcq9P--0" target="51EHA9I_869r_hzcq9P--18">
          <mxGeometry relative="1" as="geometry" />
        </mxCell>
        <mxCell id="51EHA9I_869r_hzcq9P--0" value="AuthenticationFilter" style="rounded=0;whiteSpace=wrap;html=1;" vertex="1" parent="WIyWlLk6GJQsqaUBKTNV-1">
          <mxGeometry x="-622" y="21" width="120" height="60" as="geometry" />
        </mxCell>
        <mxCell id="51EHA9I_869r_hzcq9P--4" value="" style="endArrow=classic;html=1;rounded=0;entryX=0;entryY=0.5;entryDx=0;entryDy=0;" edge="1" parent="WIyWlLk6GJQsqaUBKTNV-1" target="51EHA9I_869r_hzcq9P--0">
          <mxGeometry width="50" height="50" relative="1" as="geometry">
            <mxPoint x="-728" y="51" as="sourcePoint" />
            <mxPoint x="-670" y="6" as="targetPoint" />
          </mxGeometry>
        </mxCell>
        <mxCell id="51EHA9I_869r_hzcq9P--5" value="Request (username:password)" style="text;html=1;align=center;verticalAlign=middle;resizable=0;points=[];autosize=1;strokeColor=none;fillColor=none;" vertex="1" parent="WIyWlLk6GJQsqaUBKTNV-1">
          <mxGeometry x="-813" y="21" width="182" height="26" as="geometry" />
        </mxCell>
        <mxCell id="51EHA9I_869r_hzcq9P--11" style="edgeStyle=orthogonalEdgeStyle;rounded=0;orthogonalLoop=1;jettySize=auto;html=1;" edge="1" parent="WIyWlLk6GJQsqaUBKTNV-1" source="51EHA9I_869r_hzcq9P--6" target="51EHA9I_869r_hzcq9P--10">
          <mxGeometry relative="1" as="geometry">
            <Array as="points">
              <mxPoint x="-605" y="309" />
              <mxPoint x="-605" y="309" />
            </Array>
          </mxGeometry>
        </mxCell>
        <mxCell id="51EHA9I_869r_hzcq9P--17" style="edgeStyle=orthogonalEdgeStyle;rounded=0;orthogonalLoop=1;jettySize=auto;html=1;" edge="1" parent="WIyWlLk6GJQsqaUBKTNV-1" source="51EHA9I_869r_hzcq9P--6" target="51EHA9I_869r_hzcq9P--0">
          <mxGeometry relative="1" as="geometry" />
        </mxCell>
        <mxCell id="51EHA9I_869r_hzcq9P--6" value="AuthenticationManager" style="rounded=0;whiteSpace=wrap;html=1;" vertex="1" parent="WIyWlLk6GJQsqaUBKTNV-1">
          <mxGeometry x="-637" y="212" width="150" height="60" as="geometry" />
        </mxCell>
        <mxCell id="51EHA9I_869r_hzcq9P--8" value="" style="rounded=0;whiteSpace=wrap;html=1;" vertex="1" parent="WIyWlLk6GJQsqaUBKTNV-1">
          <mxGeometry x="-653" y="429" width="120" height="60" as="geometry" />
        </mxCell>
        <mxCell id="51EHA9I_869r_hzcq9P--9" value="" style="rounded=0;whiteSpace=wrap;html=1;" vertex="1" parent="WIyWlLk6GJQsqaUBKTNV-1">
          <mxGeometry x="-631" y="408" width="120" height="60" as="geometry" />
        </mxCell>
        <mxCell id="51EHA9I_869r_hzcq9P--14" style="edgeStyle=orthogonalEdgeStyle;rounded=0;orthogonalLoop=1;jettySize=auto;html=1;" edge="1" parent="WIyWlLk6GJQsqaUBKTNV-1" source="51EHA9I_869r_hzcq9P--10" target="51EHA9I_869r_hzcq9P--12">
          <mxGeometry relative="1" as="geometry">
            <Array as="points">
              <mxPoint x="-373" y="421" />
              <mxPoint x="-373" y="371" />
            </Array>
          </mxGeometry>
        </mxCell>
        <mxCell id="51EHA9I_869r_hzcq9P--15" style="edgeStyle=orthogonalEdgeStyle;rounded=0;orthogonalLoop=1;jettySize=auto;html=1;entryX=0;entryY=0.5;entryDx=0;entryDy=0;" edge="1" parent="WIyWlLk6GJQsqaUBKTNV-1" source="51EHA9I_869r_hzcq9P--10" target="51EHA9I_869r_hzcq9P--13">
          <mxGeometry relative="1" as="geometry">
            <Array as="points">
              <mxPoint x="-373" y="421" />
              <mxPoint x="-373" y="498" />
            </Array>
          </mxGeometry>
        </mxCell>
        <mxCell id="51EHA9I_869r_hzcq9P--16" style="edgeStyle=orthogonalEdgeStyle;rounded=0;orthogonalLoop=1;jettySize=auto;html=1;entryX=0.605;entryY=1.023;entryDx=0;entryDy=0;entryPerimeter=0;" edge="1" parent="WIyWlLk6GJQsqaUBKTNV-1" source="51EHA9I_869r_hzcq9P--10" target="51EHA9I_869r_hzcq9P--6">
          <mxGeometry relative="1" as="geometry">
            <Array as="points">
              <mxPoint x="-546" y="348" />
              <mxPoint x="-546" y="348" />
            </Array>
          </mxGeometry>
        </mxCell>
        <mxCell id="51EHA9I_869r_hzcq9P--10" value="AuthenticationProviders" style="rounded=0;whiteSpace=wrap;html=1;" vertex="1" parent="WIyWlLk6GJQsqaUBKTNV-1">
          <mxGeometry x="-615" y="391" width="136" height="60" as="geometry" />
        </mxCell>
        <mxCell id="51EHA9I_869r_hzcq9P--12" value="UserDetailService" style="rounded=0;whiteSpace=wrap;html=1;" vertex="1" parent="WIyWlLk6GJQsqaUBKTNV-1">
          <mxGeometry x="-267" y="341" width="120" height="60" as="geometry" />
        </mxCell>
        <mxCell id="51EHA9I_869r_hzcq9P--13" value="PasswordEncoder" style="rounded=0;whiteSpace=wrap;html=1;" vertex="1" parent="WIyWlLk6GJQsqaUBKTNV-1">
          <mxGeometry x="-261" y="468" width="120" height="60" as="geometry" />
        </mxCell>
        <mxCell id="51EHA9I_869r_hzcq9P--18" value="SecurityContext" style="whiteSpace=wrap;html=1;rounded=0;" vertex="1" parent="WIyWlLk6GJQsqaUBKTNV-1">
          <mxGeometry x="-422" y="21" width="120" height="60" as="geometry" />
        </mxCell>
        <mxCell id="51EHA9I_869r_hzcq9P--20" value="" style="endArrow=none;dashed=1;html=1;dashPattern=1 3;strokeWidth=2;rounded=0;" edge="1" parent="WIyWlLk6GJQsqaUBKTNV-1">
          <mxGeometry width="50" height="50" relative="1" as="geometry">
            <mxPoint x="-795" y="630" as="sourcePoint" />
            <mxPoint x="-23" y="630" as="targetPoint" />
          </mxGeometry>
        </mxCell>
        <mxCell id="51EHA9I_869r_hzcq9P--23" value="" style="edgeStyle=orthogonalEdgeStyle;rounded=0;orthogonalLoop=1;jettySize=auto;html=1;dashed=1" edge="1" parent="WIyWlLk6GJQsqaUBKTNV-1" source="51EHA9I_869r_hzcq9P--21" target="51EHA9I_869r_hzcq9P--22">
          <mxGeometry relative="1" as="geometry" />
        </mxCell>
        <mxCell id="51EHA9I_869r_hzcq9P--28" value="" style="edgeStyle=orthogonalEdgeStyle;rounded=0;orthogonalLoop=1;jettySize=auto;html=1;" edge="1" parent="WIyWlLk6GJQsqaUBKTNV-1" source="51EHA9I_869r_hzcq9P--21" target="51EHA9I_869r_hzcq9P--27">
          <mxGeometry relative="1" as="geometry" />
        </mxCell>
        <mxCell id="51EHA9I_869r_hzcq9P--21" value="UserDetailService" style="rounded=0;whiteSpace=wrap;html=1;" vertex="1" parent="WIyWlLk6GJQsqaUBKTNV-1">
          <mxGeometry x="-703" y="662" width="120" height="60" as="geometry" />
        </mxCell>
        <mxCell id="51EHA9I_869r_hzcq9P--35" value="" style="edgeStyle=orthogonalEdgeStyle;rounded=0;orthogonalLoop=1;jettySize=auto;html=1;dashed=1" edge="1" parent="WIyWlLk6GJQsqaUBKTNV-1" source="51EHA9I_869r_hzcq9P--22" target="51EHA9I_869r_hzcq9P--34">
          <mxGeometry relative="1" as="geometry" />
        </mxCell>
        <mxCell id="51EHA9I_869r_hzcq9P--37" value="" style="edgeStyle=orthogonalEdgeStyle;rounded=0;orthogonalLoop=1;jettySize=auto;html=1;" edge="1" parent="WIyWlLk6GJQsqaUBKTNV-1" source="51EHA9I_869r_hzcq9P--22" target="51EHA9I_869r_hzcq9P--36">
          <mxGeometry relative="1" as="geometry" />
        </mxCell>
        <mxCell id="51EHA9I_869r_hzcq9P--22" value="UserDetailsManager" style="whiteSpace=wrap;html=1;rounded=0;" vertex="1" parent="WIyWlLk6GJQsqaUBKTNV-1">
          <mxGeometry x="-733.5" y="804" width="181" height="60" as="geometry" />
        </mxCell>
        <mxCell id="51EHA9I_869r_hzcq9P--31" value="" style="edgeStyle=orthogonalEdgeStyle;rounded=0;orthogonalLoop=1;jettySize=auto;html=1;dashed=1" edge="1" parent="WIyWlLk6GJQsqaUBKTNV-1" source="51EHA9I_869r_hzcq9P--27" target="51EHA9I_869r_hzcq9P--30">
          <mxGeometry relative="1" as="geometry" />
        </mxCell>
        <mxCell id="51EHA9I_869r_hzcq9P--27" value="UserDetails" style="whiteSpace=wrap;html=1;rounded=0;" vertex="1" parent="WIyWlLk6GJQsqaUBKTNV-1">
          <mxGeometry x="-286" y="662" width="120" height="60" as="geometry" />
        </mxCell>
        <mxCell id="51EHA9I_869r_hzcq9P--30" value="User" style="whiteSpace=wrap;html=1;rounded=0;" vertex="1" parent="WIyWlLk6GJQsqaUBKTNV-1">
          <mxGeometry x="-134" y="792" width="120" height="60" as="geometry" />
        </mxCell>
        <mxCell id="51EHA9I_869r_hzcq9P--34" value="InMemoryUserDetailsManager" style="whiteSpace=wrap;html=1;rounded=0;" vertex="1" parent="WIyWlLk6GJQsqaUBKTNV-1">
          <mxGeometry x="-733.5" y="944" width="181" height="60" as="geometry" />
        </mxCell>
        <mxCell id="51EHA9I_869r_hzcq9P--39" value="" style="edgeStyle=orthogonalEdgeStyle;rounded=0;orthogonalLoop=1;jettySize=auto;html=1;" edge="1" parent="WIyWlLk6GJQsqaUBKTNV-1" source="51EHA9I_869r_hzcq9P--36">
          <mxGeometry relative="1" as="geometry">
            <mxPoint x="-376.5" y="934" as="targetPoint" />
          </mxGeometry>
        </mxCell>
        <mxCell id="51EHA9I_869r_hzcq9P--36" value="JdbcUserDetailsManager" style="whiteSpace=wrap;html=1;rounded=0;" vertex="1" parent="WIyWlLk6GJQsqaUBKTNV-1">
          <mxGeometry x="-467" y="804" width="181" height="60" as="geometry" />
        </mxCell>
        <mxCell id="51EHA9I_869r_hzcq9P--42" value="" style="edgeStyle=orthogonalEdgeStyle;rounded=0;orthogonalLoop=1;jettySize=auto;html=1;dashed=1" edge="1" parent="WIyWlLk6GJQsqaUBKTNV-1" source="51EHA9I_869r_hzcq9P--40" target="51EHA9I_869r_hzcq9P--41">
          <mxGeometry relative="1" as="geometry" />
        </mxCell>
        <mxCell id="51EHA9I_869r_hzcq9P--40" value="PasswordEncoder" style="rounded=0;whiteSpace=wrap;html=1;" vertex="1" parent="WIyWlLk6GJQsqaUBKTNV-1">
          <mxGeometry x="-735" y="1055" width="120" height="60" as="geometry" />
        </mxCell>
        <mxCell id="51EHA9I_869r_hzcq9P--41" value="" style="whiteSpace=wrap;html=1;rounded=0;" vertex="1" parent="WIyWlLk6GJQsqaUBKTNV-1">
          <mxGeometry x="-535" y="1055" width="120" height="60" as="geometry" />
        </mxCell>
        <mxCell id="51EHA9I_869r_hzcq9P--43" value="" style="endArrow=none;dashed=1;html=1;dashPattern=1 3;strokeWidth=2;rounded=0;" edge="1" parent="WIyWlLk6GJQsqaUBKTNV-1">
          <mxGeometry width="50" height="50" relative="1" as="geometry">
            <mxPoint x="-799" y="1033" as="sourcePoint" />
            <mxPoint x="-27" y="1033" as="targetPoint" />
          </mxGeometry>
        </mxCell>
        <mxCell id="51EHA9I_869r_hzcq9P--44" value="" style="strokeWidth=2;html=1;shape=mxgraph.flowchart.database;whiteSpace=wrap;" vertex="1" parent="WIyWlLk6GJQsqaUBKTNV-1">
          <mxGeometry x="-406.5" y="936" width="60" height="60" as="geometry" />
        </mxCell>
      </root>
    </mxGraphModel>
  </diagram>
</mxfile>
